<mxfile host="app.diagrams.net" agent="Mozilla/5.0 (Windows NT 10.0; Win64; x64) AppleWebKit/537.36 (KHTML, like Gecko) Chrome/131.0.0.0 Safari/537.36 Edg/131.0.0.0" version="24.9.1">
  <diagram name="第 1 页" id="_NFSHBQwrACmKZchl0Oe">
    <mxGraphModel dx="1042" dy="565" grid="1" gridSize="12" guides="1" tooltips="1" connect="1" arrows="1" fold="1" page="1" pageScale="1" pageWidth="827" pageHeight="1169" math="0" shadow="0">
      <root>
        <mxCell id="0" />
        <mxCell id="1" parent="0" />
        <mxCell id="gj50v2t_jQo4GkbzfRTQ-39" value="" style="rounded=1;whiteSpace=wrap;html=1;dashed=1;" vertex="1" parent="1">
          <mxGeometry x="480" y="264" width="275" height="72" as="geometry" />
        </mxCell>
        <mxCell id="gj50v2t_jQo4GkbzfRTQ-14" value="" style="rounded=1;whiteSpace=wrap;html=1;dashed=1;" vertex="1" parent="1">
          <mxGeometry x="150" y="264" width="275" height="72" as="geometry" />
        </mxCell>
        <mxCell id="gj50v2t_jQo4GkbzfRTQ-1" value="" style="rounded=1;whiteSpace=wrap;html=1;dashed=1;" vertex="1" parent="1">
          <mxGeometry x="173.5" y="40" width="228" height="70" as="geometry" />
        </mxCell>
        <mxCell id="gj50v2t_jQo4GkbzfRTQ-2" value="&lt;b&gt;&lt;font style=&quot;font-size: 14px;&quot;&gt;接入埋点的服务&lt;/font&gt;&lt;/b&gt;" style="text;html=1;align=center;verticalAlign=middle;whiteSpace=wrap;rounded=0;" vertex="1" parent="1">
          <mxGeometry x="216" y="40" width="110" height="30" as="geometry" />
        </mxCell>
        <mxCell id="gj50v2t_jQo4GkbzfRTQ-3" value="" style="rounded=0;whiteSpace=wrap;html=1;fillColor=#fff2cc;strokeColor=#d6b656;" vertex="1" parent="1">
          <mxGeometry x="216" y="70" width="48" height="33" as="geometry" />
        </mxCell>
        <mxCell id="gj50v2t_jQo4GkbzfRTQ-4" value="" style="rounded=0;whiteSpace=wrap;html=1;fillColor=#fff2cc;strokeColor=#d6b656;" vertex="1" parent="1">
          <mxGeometry x="324" y="70" width="48" height="33" as="geometry" />
        </mxCell>
        <mxCell id="gj50v2t_jQo4GkbzfRTQ-27" value="" style="edgeStyle=orthogonalEdgeStyle;rounded=0;orthogonalLoop=1;jettySize=auto;html=1;" edge="1" parent="1" source="gj50v2t_jQo4GkbzfRTQ-7" target="gj50v2t_jQo4GkbzfRTQ-16">
          <mxGeometry relative="1" as="geometry" />
        </mxCell>
        <mxCell id="gj50v2t_jQo4GkbzfRTQ-7" value="Kafka" style="rounded=0;whiteSpace=wrap;html=1;fillColor=#f8cecc;strokeColor=#b85450;" vertex="1" parent="1">
          <mxGeometry x="143.5" y="168" width="288" height="60" as="geometry" />
        </mxCell>
        <mxCell id="gj50v2t_jQo4GkbzfRTQ-8" value="" style="shape=flexArrow;endArrow=classic;html=1;rounded=0;" edge="1" parent="1">
          <mxGeometry width="50" height="50" relative="1" as="geometry">
            <mxPoint x="204" y="120" as="sourcePoint" />
            <mxPoint x="204" y="168" as="targetPoint" />
          </mxGeometry>
        </mxCell>
        <mxCell id="gj50v2t_jQo4GkbzfRTQ-9" value="" style="shape=flexArrow;endArrow=classic;html=1;rounded=0;" edge="1" parent="1">
          <mxGeometry width="50" height="50" relative="1" as="geometry">
            <mxPoint x="384" y="120" as="sourcePoint" />
            <mxPoint x="384" y="168" as="targetPoint" />
          </mxGeometry>
        </mxCell>
        <mxCell id="gj50v2t_jQo4GkbzfRTQ-12" value="&lt;b&gt;上报数据并分发到不同主题&lt;/b&gt;" style="text;html=1;align=center;verticalAlign=middle;whiteSpace=wrap;rounded=0;" vertex="1" parent="1">
          <mxGeometry x="216" y="120" width="168" height="30" as="geometry" />
        </mxCell>
        <mxCell id="gj50v2t_jQo4GkbzfRTQ-15" value="HBase" style="shape=cylinder3;whiteSpace=wrap;html=1;boundedLbl=1;backgroundOutline=1;size=15;dashed=1;" vertex="1" parent="1">
          <mxGeometry x="173.5" y="276" width="48" height="48" as="geometry" />
        </mxCell>
        <mxCell id="gj50v2t_jQo4GkbzfRTQ-16" value="HBase" style="shape=cylinder3;whiteSpace=wrap;html=1;boundedLbl=1;backgroundOutline=1;size=15;dashed=1;" vertex="1" parent="1">
          <mxGeometry x="263.5" y="276" width="48" height="48" as="geometry" />
        </mxCell>
        <mxCell id="gj50v2t_jQo4GkbzfRTQ-17" value="HBase" style="shape=cylinder3;whiteSpace=wrap;html=1;boundedLbl=1;backgroundOutline=1;size=15;dashed=1;" vertex="1" parent="1">
          <mxGeometry x="353.5" y="276" width="48" height="48" as="geometry" />
        </mxCell>
        <mxCell id="gj50v2t_jQo4GkbzfRTQ-32" value="" style="edgeStyle=orthogonalEdgeStyle;rounded=0;orthogonalLoop=1;jettySize=auto;html=1;" edge="1" parent="1" source="gj50v2t_jQo4GkbzfRTQ-29" target="gj50v2t_jQo4GkbzfRTQ-31">
          <mxGeometry relative="1" as="geometry" />
        </mxCell>
        <mxCell id="gj50v2t_jQo4GkbzfRTQ-37" value="" style="edgeStyle=orthogonalEdgeStyle;rounded=0;orthogonalLoop=1;jettySize=auto;html=1;" edge="1" parent="1" source="gj50v2t_jQo4GkbzfRTQ-29" target="gj50v2t_jQo4GkbzfRTQ-36">
          <mxGeometry relative="1" as="geometry" />
        </mxCell>
        <mxCell id="gj50v2t_jQo4GkbzfRTQ-29" value="监控系统" style="rounded=0;whiteSpace=wrap;html=1;fillColor=#d5e8d4;strokeColor=#82b366;" vertex="1" parent="1">
          <mxGeometry x="53.5" y="384" width="120" height="60" as="geometry" />
        </mxCell>
        <mxCell id="gj50v2t_jQo4GkbzfRTQ-31" value="Mysql" style="rounded=0;whiteSpace=wrap;html=1;" vertex="1" parent="1">
          <mxGeometry x="53.5" y="480" width="120" height="60" as="geometry" />
        </mxCell>
        <mxCell id="gj50v2t_jQo4GkbzfRTQ-35" value="读取配置" style="text;html=1;align=center;verticalAlign=middle;whiteSpace=wrap;rounded=0;" vertex="1" parent="1">
          <mxGeometry x="114" y="444" width="60" height="30" as="geometry" />
        </mxCell>
        <mxCell id="gj50v2t_jQo4GkbzfRTQ-44" style="edgeStyle=orthogonalEdgeStyle;rounded=0;orthogonalLoop=1;jettySize=auto;html=1;exitX=0.25;exitY=0;exitDx=0;exitDy=0;entryX=0.5;entryY=1;entryDx=0;entryDy=0;" edge="1" parent="1" source="gj50v2t_jQo4GkbzfRTQ-36" target="gj50v2t_jQo4GkbzfRTQ-14">
          <mxGeometry relative="1" as="geometry" />
        </mxCell>
        <mxCell id="gj50v2t_jQo4GkbzfRTQ-45" style="edgeStyle=orthogonalEdgeStyle;rounded=0;orthogonalLoop=1;jettySize=auto;html=1;exitX=0.75;exitY=0;exitDx=0;exitDy=0;entryX=0.5;entryY=1;entryDx=0;entryDy=0;" edge="1" parent="1" source="gj50v2t_jQo4GkbzfRTQ-36" target="gj50v2t_jQo4GkbzfRTQ-39">
          <mxGeometry relative="1" as="geometry" />
        </mxCell>
        <mxCell id="gj50v2t_jQo4GkbzfRTQ-36" value="生成监控任务" style="rounded=0;whiteSpace=wrap;html=1;" vertex="1" parent="1">
          <mxGeometry x="252" y="384" width="408" height="60" as="geometry" />
        </mxCell>
        <mxCell id="gj50v2t_jQo4GkbzfRTQ-43" value="" style="edgeStyle=orthogonalEdgeStyle;rounded=0;orthogonalLoop=1;jettySize=auto;html=1;" edge="1" parent="1" source="gj50v2t_jQo4GkbzfRTQ-38" target="gj50v2t_jQo4GkbzfRTQ-41">
          <mxGeometry relative="1" as="geometry" />
        </mxCell>
        <mxCell id="gj50v2t_jQo4GkbzfRTQ-38" value="日志中心" style="rounded=0;whiteSpace=wrap;html=1;" vertex="1" parent="1">
          <mxGeometry x="557.5" y="156" width="120" height="60" as="geometry" />
        </mxCell>
        <mxCell id="gj50v2t_jQo4GkbzfRTQ-40" value="ES" style="shape=cylinder3;whiteSpace=wrap;html=1;boundedLbl=1;backgroundOutline=1;size=15;dashed=1;" vertex="1" parent="1">
          <mxGeometry x="503.5" y="276" width="48" height="48" as="geometry" />
        </mxCell>
        <mxCell id="gj50v2t_jQo4GkbzfRTQ-41" value="ES" style="shape=cylinder3;whiteSpace=wrap;html=1;boundedLbl=1;backgroundOutline=1;size=15;dashed=1;" vertex="1" parent="1">
          <mxGeometry x="593.5" y="276" width="48" height="48" as="geometry" />
        </mxCell>
        <mxCell id="gj50v2t_jQo4GkbzfRTQ-42" value="ES" style="shape=cylinder3;whiteSpace=wrap;html=1;boundedLbl=1;backgroundOutline=1;size=15;dashed=1;" vertex="1" parent="1">
          <mxGeometry x="683.5" y="276" width="48" height="48" as="geometry" />
        </mxCell>
        <mxCell id="gj50v2t_jQo4GkbzfRTQ-46" value="读取指标信息" style="text;html=1;align=center;verticalAlign=middle;whiteSpace=wrap;rounded=0;" vertex="1" parent="1">
          <mxGeometry x="347.5" y="348" width="60" height="30" as="geometry" />
        </mxCell>
        <mxCell id="gj50v2t_jQo4GkbzfRTQ-47" value="读取接口信息" style="text;html=1;align=center;verticalAlign=middle;whiteSpace=wrap;rounded=0;" vertex="1" parent="1">
          <mxGeometry x="491.5" y="348" width="72" height="30" as="geometry" />
        </mxCell>
      </root>
    </mxGraphModel>
  </diagram>
</mxfile>
